<svg xmlns="http://www.w3.org/2000/svg" width="1600" height="900" viewBox="0, 0, 1600, 900"><path fill="#43376E" d="M0 0h1600v900H0z"/><defs><linearGradient id="a" gradientUnits="userSpaceOnUse" x1="800" x2="800" y2="900"><stop offset="0" stop-color="#FFF"/><stop offset="1"/></linearGradient></defs><path d="M993.46 169.26c50.996 0 92.335 40.442 92.335 90.327v380.826c0 49.886-41.34 90.326-92.334 90.326H606.54c-50.996 0-92.335-40.44-92.335-90.327V259.587c0-49.885 41.34-90.326 92.334-90.326h386.92zM799.505 276.33H660.426v347.81h153.756c47.803 0 83.415-8.232 106.835-24.695 23.42-16.462 35.13-41.467 35.13-75.013 0-21.898-5.454-40.38-16.36-55.444-10.91-15.065-26.31-25.393-46.2-30.984 15.56-5.746 27.43-14.52 35.61-26.324 8.182-11.96 12.273-26.402 12.273-43.33 0-32.15-11.23-55.522-33.687-70.122-22.298-14.598-58.39-21.897-108.28-21.898zm7.94 195.686c18.77 0 32.805 3.805 42.11 11.415 9.303 7.454 13.955 18.714 13.955 33.778 0 15.376-4.734 26.87-14.198 34.478-9.304 7.61-23.26 11.416-41.868 11.415h-54.38v-91.086h54.38zm-3.128-134.65c14.598 0 25.666 3.184 33.206 9.55 7.54 6.213 11.31 15.3 11.31 27.257 0 12.115-3.77 21.278-11.31 27.49-7.54 6.213-18.608 9.32-33.206 9.32h-51.252v-73.616h51.252z" fill="#FFF"/></svg>