<?xml version="1.0" encoding="UTF-8"?>
<!DOCTYPE svg PUBLIC "-//W3C//DTD SVG 1.1//EN" "http://www.w3.org/Graphics/SVG/1.1/DTD/svg11.dtd">
<svg version="1.1" xmlns="http://www.w3.org/2000/svg" xmlns:xlink="http://www.w3.org/1999/xlink" x="0" y="0" width="300" height="168.75" viewBox="0, 0, 300, 168.75">
  <g id="Background">
    <rect x="0" y="0" width="300" height="168.75" fill="#FFFFFF"/>
  </g>
  <g id="Layer_1">
    <path d="M0,0 L300,0 L300,168.75 L0,168.75 z" fill="#43376E"/>
    <path d="M186.274,31.736 C195.835,31.736 203.587,39.319 203.587,48.673 L203.587,120.077 C203.587,129.431 195.835,137.014 186.274,137.014 L113.726,137.014 C104.164,137.014 96.413,129.431 96.413,120.077 L96.413,48.673 C96.413,39.319 104.165,31.736 113.726,31.736 L186.274,31.736 z M149.907,51.812 L123.83,51.812 L123.83,117.026 L152.659,117.026 C161.622,117.026 168.299,115.483 172.691,112.396 C177.082,109.309 179.278,104.621 179.278,98.331 C179.278,94.225 178.255,90.76 176.21,87.935 C174.164,85.111 171.277,83.174 167.548,82.126 C170.465,81.048 172.691,79.403 174.224,77.19 C175.759,74.948 176.526,72.24 176.526,69.066 C176.526,63.038 174.42,58.655 170.209,55.918 C166.028,53.181 159.261,51.812 149.907,51.812 z M151.396,88.503 C154.915,88.503 157.547,89.216 159.292,90.643 C161.036,92.041 161.908,94.152 161.908,96.977 C161.908,99.86 161.02,102.015 159.246,103.441 C157.501,104.868 154.885,105.582 151.396,105.582 L141.199,105.582 L141.199,88.503 L151.396,88.503 z M150.809,63.256 C153.547,63.256 155.622,63.853 157.036,65.047 C158.449,66.212 159.156,67.916 159.156,70.157 C159.156,72.429 158.449,74.147 157.036,75.312 C155.622,76.477 153.547,77.059 150.809,77.059 L141.2,77.059 L141.2,63.256 L150.809,63.256 z" fill="#FFFFFF"/>
  </g>
</svg>
