<?xml version="1.0" encoding="UTF-8"?>
<!DOCTYPE svg PUBLIC "-//W3C//DTD SVG 1.1//EN" "http://www.w3.org/Graphics/SVG/1.1/DTD/svg11.dtd">
<svg version="1.1" xmlns="http://www.w3.org/2000/svg" xmlns:xlink="http://www.w3.org/1999/xlink" x="0" y="0" width="300" height="168.75" viewBox="0, 0, 300, 168.75">
  <g id="Background">
    <rect x="0" y="0" width="300" height="168.75" fill="#FFFFFF"/>
  </g>
  <g id="Layer_1">
    <path d="M0,0 L300,0 L300,168.75 L0,168.75 z" fill="#48440E"/>
    <path d="M0,0 L300,0 L300,168.75 L0,168.75 L0,0 z" fill="#000000" opacity="0.475"/>
    <g>
      <path d="M112.754,21.516 L118.561,21.516 L118.561,27.128 L123.873,27.128 L123.873,21.516 L129.681,21.516 L129.681,38.512 L123.873,38.512 L123.873,32.821 L118.561,32.821 L118.561,38.512 L112.754,38.512 L112.754,21.516 z M137.318,27.152 L132.204,27.152 L132.204,21.515 L148.239,21.515 L148.239,27.152 L143.124,27.152 L143.124,38.512 L137.317,38.512 L137.317,27.151 z M150.785,21.516 L156.84,21.516 L160.564,27.488 L164.285,21.516 L170.343,21.516 L170.343,38.512 L164.56,38.512 L164.56,30.088 L160.564,36.131 L160.465,36.131 L156.466,30.088 L156.466,38.512 L150.785,38.512 L150.785,21.516 z M173.233,21.516 L179.043,21.516 L179.043,32.894 L187.209,32.894 L187.209,38.512 L173.233,38.512 L173.233,21.515 z M134.913,87.222 L150,87.222 L150,75.775 L133.868,75.775 L134.913,87.222 z M104.384,45.965 L112.691,137.109 L149.978,147.235 L187.299,137.114 L195.616,45.965 L104.384,45.965 z M180.179,131.31 L150,139.495 L150,127.895 L149.981,127.9 L126.574,121.543 L124.937,103.594 L136.408,103.594 L137.258,112.906 L149.984,116.268 L150,116.263 L150,98.401 L124.463,98.401 L121.38,64.596 L150,64.596 L150,53.418 L187.286,53.418 L180.178,131.31 z" fill="#8CBA4D"/>
      <path d="M164.066,98.401 L150,98.401 L150,116.263 L162.739,112.9 L164.066,98.401 z M150,53.418 L150,64.596 L178.619,64.596 L177.596,75.775 L150,75.775 L150,87.222 L176.556,87.222 L173.421,121.543 L150,127.894 L150,139.495 L180.179,131.31 L187.286,53.417 L150,53.417 z" fill="#8CBA4D" opacity="0.58"/>
      <g opacity="0.2">
        <path d="M150,64.596 L121.38,64.596 L124.463,98.401 L150,98.401 L150,87.222 L134.913,87.222 L133.868,75.775 L150,75.775 z M150,116.263 L149.984,116.268 L137.257,112.906 L136.408,103.594 L124.936,103.594 L126.573,121.543 L149.981,127.899 L150,127.895 z" fill="#8CBA4D"/>
      </g>
    </g>
  </g>
</svg>
