<?xml version="1.0" encoding="UTF-8"?>
<!DOCTYPE svg PUBLIC "-//W3C//DTD SVG 1.1//EN" "http://www.w3.org/Graphics/SVG/1.1/DTD/svg11.dtd">
<svg version="1.1" xmlns="http://www.w3.org/2000/svg" xmlns:xlink="http://www.w3.org/1999/xlink" x="0" y="0" width="300" height="168.75" viewBox="0, 0, 300, 168.75">
  <g id="Background">
    <rect x="0" y="0" width="300" height="168.75" fill="#FFFFFF"/>
  </g>
  <g id="Layer_1">
    <path d="M0,0 L300,0 L300,168.75 L0,168.75 z" fill="#1A1807"/>
    <path d="M137.048,86.012 L121.688,101.372 C114.394,97.893 105.401,99.153 99.362,105.193 C90.107,114.447 94.704,125.506 94.704,125.506 C95.166,126.614 96.236,126.827 97.084,125.978 L107.072,115.988 C107.922,115.141 109.308,115.141 110.157,115.988 L116.326,122.158 C117.174,123.007 117.174,124.392 116.326,125.24 L106.337,135.229 C105.489,136.078 105.701,137.151 106.808,137.609 C106.808,137.609 117.868,142.205 127.121,132.952 C133.162,126.912 134.423,117.919 130.943,110.625 L146.042,95.524 L137.577,86.603 C137.391,86.413 137.214,86.217 137.047,86.012 z M163.705,77.862 L178.312,63.255 C185.605,66.736 194.596,65.478 200.635,59.437 C209.888,50.182 205.292,39.123 205.292,39.123 C204.833,38.015 203.761,37.802 202.913,38.651 L192.925,48.641 C192.077,49.489 190.688,49.489 189.84,48.641 L183.671,42.471 C182.823,41.624 182.823,40.235 183.671,39.386 L193.662,29.397 C194.51,28.549 194.298,27.478 193.188,27.017 C193.188,27.017 182.131,22.421 172.878,31.673 C166.837,37.714 165.58,46.706 169.06,54.002 L154.194,68.867 C154.396,69.035 154.593,69.211 154.782,69.397 L163.705,77.862 z" fill="#95926A"/>
    <path d="M150.557,26.999 C150.557,26.999 135.007,22.597 120.535,37.069 C109.477,48.126 106.639,50.965 106.639,50.965 C105.876,51.729 105.72,52.823 106.292,53.396 C106.866,53.969 106.708,55.064 105.944,55.828 L103.167,58.606 C102.403,59.37 101.309,59.527 100.735,58.954 C100.162,58.38 99.068,58.537 98.304,59.301 L94.134,63.471 C93.371,64.234 93.371,65.484 94.134,66.249 L102.472,74.586 C103.236,75.35 104.487,75.35 105.25,74.586 L109.419,70.417 C110.182,69.653 110.339,68.559 109.766,67.986 C109.193,67.412 109.35,66.318 110.114,65.554 L112.892,62.776 C113.657,62.011 114.751,61.855 115.324,62.427 C115.897,63 116.991,62.844 117.756,62.08 L120.535,59.301 L140.376,79.143 C140.033,80.451 140.357,81.902 141.377,82.922 L192.786,137.111 C194.312,138.638 196.814,138.639 198.345,137.111 L205.292,130.164 C206.82,128.635 206.82,126.135 205.292,124.606 L151.101,73.198 C150.08,72.178 148.63,71.854 147.321,72.197 L127.48,52.356 L130.259,49.577 C131.023,48.812 131.023,47.561 130.259,46.798 C130.259,46.798 128.175,44.714 135.122,37.766 C142.94,29.949 150.646,28.018 150.646,28.018 C151.661,27.647 151.622,27.189 150.557,26.999 z" fill="#D4D3C3"/>
  </g>
</svg>
