<svg xmlns="http://www.w3.org/2000/svg" width="1600" height="900" viewBox="0, 0, 1600, 900"><path fill="#1A1807" d="M0 0h1600v900H0z"/><g fill="#95926A"><path d="M730.92 458.728l-81.917 81.92c-38.904-18.554-86.863-11.833-119.075 20.38-49.355 49.354-24.842 108.337-24.842 108.337 2.464 5.907 8.174 7.045 12.694 2.516l53.273-53.277c4.53-4.52 11.922-4.52 16.45 0l32.905 32.904c4.52 4.53 4.52 11.918 0 16.438l-53.278 53.277c-4.52 4.525-3.39 10.25 2.512 12.69 0 0 58.987 24.513 108.338-24.833 32.217-32.218 38.942-80.177 20.38-119.082l80.532-80.537-45.146-47.577c-.993-1.015-1.938-2.06-2.827-3.155zM873.092 415.265l77.904-77.903c38.895 18.563 86.85 11.852 119.06-20.365 49.347-49.36 24.834-108.343 24.834-108.343-2.45-5.907-8.165-7.045-12.69-2.516l-53.268 53.278c-4.524 4.524-11.932 4.524-16.452 0l-32.903-32.904c-4.52-4.52-4.52-11.923 0-16.452l53.287-53.278c4.52-4.52 3.39-10.234-2.526-12.693 0 0-58.973-24.51-108.324 24.836-32.216 32.217-38.923 80.175-20.36 119.085l-79.286 79.283c1.077.893 2.126 1.83 3.137 2.822l47.587 45.15z"/></g><path d="M802.972 143.994s-82.936-23.478-160.12 53.71c-58.974 58.97-74.11 74.11-74.11 74.11-4.072 4.072-4.904 9.91-1.852 12.966 3.062 3.057 2.22 8.894-1.853 12.967l-14.815 14.82c-4.073 4.072-9.905 4.91-12.967 1.852-3.06-3.058-8.893-2.22-12.966 1.852L502.05 338.51c-4.073 4.072-4.073 10.74 0 14.82l44.47 44.463c4.072 4.073 10.746 4.073 14.814 0l22.232-22.237c4.073-4.073 4.91-9.91 1.853-12.966-3.056-3.058-2.22-8.894 1.854-12.967l14.82-14.82c4.077-4.078 9.914-4.91 12.97-1.858 3.053 3.057 8.89 2.225 12.968-1.853l14.82-14.82L748.67 422.094c-1.826 6.98-.1 14.717 5.342 20.154l274.182 289.01c8.136 8.147 21.48 8.152 29.644 0l37.052-37.05c8.15-8.152 8.15-21.49 0-29.645L805.87 390.39c-5.443-5.44-13.175-7.168-20.16-5.338L679.895 279.23l14.82-14.82c4.073-4.077 4.077-10.75 0-14.82 0 0-11.114-11.113 25.938-48.17 41.694-41.69 82.79-51.99 82.79-51.99 5.414-1.98 5.207-4.42-.47-5.436z" fill="#D4D3C3"/></svg>